<?xml version="1.0" encoding="UTF-8"?>
<svg id="Layer_1" data-name="Layer 1" xmlns="http://www.w3.org/2000/svg" viewBox="0 0 717.08 719.41">
  <defs>
    <style>
      .cls-1 {
        fill: white;
      }

      .cls-2 {
        fill: none;
      }
    </style>
  </defs>
  <path class="cls-1" d="M252.76,719.41H65.86c-36.37,0-65.86-29.48-65.86-65.85V258.44c0-36.37,29.49-65.86,65.86-65.86H444.13C249.74,248.3,115.95,364.93,115.95,499.79c0,83.61,51.42,160.21,136.81,219.62Z"/>
  <path class="cls-1" d="M651.22,192.58h-148.24c-159.49,61.14-264.79,166.44-264.79,286.08,0,93.89,64.84,178.94,169.83,240.75h243.2c36.37,0,65.86-29.48,65.86-65.85V258.44c0-36.37-29.49-65.86-65.86-65.86Zm-178.51,304.89c-3.19,9.89-8.3,19.06-15.32,27.52-7.02,8.45-15.99,15.31-26.92,20.58-10.93,5.26-23.41,7.89-37.45,7.89-17.07,0-31.99-3.62-44.75-10.88-12.76-7.26-22.61-17.43-29.55-30.52-6.94-13.08-10.41-27.99-10.41-44.75s3.47-31.66,10.41-44.75c6.94-13.07,16.75-23.24,29.43-30.51,12.69-7.25,27.48-10.88,44.39-10.88,21.22,0,38.69,5.18,52.41,15.55,13.72,10.37,22.26,24.41,25.61,42.12h-43.32c-2.87-6.06-7.26-10.89-13.16-14.48-5.9-3.59-13-5.38-21.3-5.38-12.92,0-23.29,4.34-31.11,13.04-7.82,8.69-11.72,20.46-11.72,35.29,0,16.12,4.1,28.48,12.32,37.1,8.22,8.61,19.9,12.92,35.06,12.92,9.73,0,18.26-2.67,25.6-8.02,7.34-5.34,12.53-12.96,15.56-22.85h-51.69v-29.44h85.91v40.45Zm177.44,14.11c-7.58,13.25-17.87,23.58-30.87,31-13,7.41-27.4,11.12-43.19,11.12s-30.2-3.71-43.2-11.12c-13-7.42-23.29-17.75-30.87-31-7.58-13.24-11.36-28.15-11.36-44.74s3.78-31.47,11.36-44.63c7.58-13.17,17.87-23.46,30.87-30.87,13-7.42,27.4-11.13,43.2-11.13s30.43,3.71,43.43,11.13c13,7.41,23.25,17.7,30.75,30.87,7.5,13.16,11.25,28.03,11.25,44.63s-3.79,31.5-11.37,44.74Zm-74.06-93.32c-13.41,0-24.05,4.35-31.95,13.04-7.9,8.7-11.85,20.54-11.85,35.54s3.95,26.64,11.85,35.41c7.9,8.78,18.54,13.16,31.95,13.16s23.84-4.38,31.82-13.16c7.98-8.77,11.97-20.58,11.97-35.41s-3.95-26.65-11.85-35.42c-7.89-8.77-18.54-13.16-31.94-13.16Z"/>
  <path class="cls-2" d="M651.22,192.58h-148.24c-159.49,61.14-264.79,166.44-264.79,286.08,0,93.89,64.84,178.94,169.83,240.75h243.2c36.37,0,65.86-29.48,65.86-65.85V258.44c0-36.37-29.49-65.86-65.86-65.86Zm-178.51,304.89c-3.19,9.89-8.3,19.06-15.32,27.52-7.02,8.45-15.99,15.31-26.92,20.58-10.93,5.26-23.41,7.89-37.45,7.89-17.07,0-31.99-3.62-44.75-10.88-12.76-7.26-22.61-17.43-29.55-30.52-6.94-13.08-10.41-27.99-10.41-44.75s3.47-31.66,10.41-44.75c6.94-13.07,16.75-23.24,29.43-30.51,12.69-7.25,27.48-10.88,44.39-10.88,21.22,0,38.69,5.18,52.41,15.55,13.72,10.37,22.26,24.41,25.61,42.12h-43.32c-2.87-6.06-7.26-10.89-13.16-14.48-5.9-3.59-13-5.38-21.3-5.38-12.92,0-23.29,4.34-31.11,13.04-7.82,8.69-11.72,20.46-11.72,35.29,0,16.12,4.1,28.48,12.32,37.1,8.22,8.61,19.9,12.92,35.06,12.92,9.73,0,18.26-2.67,25.6-8.02,7.34-5.34,12.53-12.96,15.56-22.85h-51.69v-29.44h85.91v40.45Zm177.44,14.11c-7.58,13.25-17.87,23.58-30.87,31-13,7.41-27.4,11.12-43.19,11.12s-30.2-3.71-43.2-11.12c-13-7.42-23.29-17.75-30.87-31-7.58-13.24-11.36-28.15-11.36-44.74s3.78-31.47,11.36-44.63c7.58-13.17,17.87-23.46,30.87-30.87,13-7.42,27.4-11.13,43.2-11.13s30.43,3.71,43.43,11.13c13,7.41,23.25,17.7,30.75,30.87,7.5,13.16,11.25,28.03,11.25,44.63s-3.79,31.5-11.37,44.74Zm-74.06-93.32c-13.41,0-24.05,4.35-31.95,13.04-7.9,8.7-11.85,20.54-11.85,35.54s3.95,26.64,11.85,35.41c7.9,8.78,18.54,13.16,31.95,13.16s23.84-4.38,31.82-13.16c7.98-8.77,11.97-20.58,11.97-35.41s-3.95-26.65-11.85-35.42c-7.89-8.77-18.54-13.16-31.94-13.16Z"/>
  <path class="cls-2" d="M651.22,192.58h-148.24c-159.49,61.14-264.79,166.44-264.79,286.08,0,93.89,64.84,178.94,169.83,240.75h243.2c36.37,0,65.86-29.48,65.86-65.85V258.44c0-36.37-29.49-65.86-65.86-65.86Zm-178.51,304.89c-3.19,9.89-8.3,19.06-15.32,27.52-7.02,8.45-15.99,15.31-26.92,20.58-10.93,5.26-23.41,7.89-37.45,7.89-17.07,0-31.99-3.62-44.75-10.88-12.76-7.26-22.61-17.43-29.55-30.52-6.94-13.08-10.41-27.99-10.41-44.75s3.47-31.66,10.41-44.75c6.94-13.07,16.75-23.24,29.43-30.51,12.69-7.25,27.48-10.88,44.39-10.88,21.22,0,38.69,5.18,52.41,15.55,13.72,10.37,22.26,24.41,25.61,42.12h-43.32c-2.87-6.06-7.26-10.89-13.16-14.48-5.9-3.59-13-5.38-21.3-5.38-12.92,0-23.29,4.34-31.11,13.04-7.82,8.69-11.72,20.46-11.72,35.29,0,16.12,4.1,28.48,12.32,37.1,8.22,8.61,19.9,12.92,35.06,12.92,9.73,0,18.26-2.67,25.6-8.02,7.34-5.34,12.53-12.96,15.56-22.85h-51.69v-29.44h85.91v40.45Zm177.44,14.11c-7.58,13.25-17.87,23.58-30.87,31-13,7.41-27.4,11.12-43.19,11.12s-30.2-3.71-43.2-11.12c-13-7.42-23.29-17.75-30.87-31-7.58-13.24-11.36-28.15-11.36-44.74s3.78-31.47,11.36-44.63c7.58-13.17,17.87-23.46,30.87-30.87,13-7.42,27.4-11.13,43.2-11.13s30.43,3.71,43.43,11.13c13,7.41,23.25,17.7,30.75,30.87,7.5,13.16,11.25,28.03,11.25,44.63s-3.79,31.5-11.37,44.74Zm-74.06-93.32c-13.41,0-24.05,4.35-31.95,13.04-7.9,8.7-11.85,20.54-11.85,35.54s3.95,26.64,11.85,35.41c7.9,8.78,18.54,13.16,31.95,13.16s23.84-4.38,31.82-13.16c7.98-8.77,11.97-20.58,11.97-35.41s-3.95-26.65-11.85-35.42c-7.89-8.77-18.54-13.16-31.94-13.16Z"/>
  <g>
    <path class="cls-1" d="M636.88,37.94l-39.28,26.68-34.68-51.06,10.03-6.81c16.09-10.93,37.11-8.29,46.73,5.86l17.21,25.33Z"/>
    <path class="cls-1" d="M557.95,16.92l34.68,51.06-88.92,60.4-17.21-25.33c-9.61-14.15-4.32-34.67,11.77-45.6l59.67-40.53Z"/>
    <path class="cls-1" d="M630.29,123.42l-59.67,40.53c-16.09,10.93-37.12,8.28-46.73-5.87l-17.2-25.32,88.92-60.4,34.68,51.06Z"/>
    <path class="cls-1" d="M645.27,113.24l-10.03,6.81-34.68-51.06,39.28-26.68,17.2,25.32c9.61,14.15,4.32,34.68-11.77,45.61Z"/>
  </g>
</svg>